<svg width="131" height="37" viewBox="0 0 131 37" fill="none" xmlns="http://www.w3.org/2000/svg">
<path d="M6.9541 35.769C6.61719 35.769 6.2876 35.7617 5.96533 35.7471C5.65771 35.7324 5.34277 35.7251 5.02051 35.7251C4.40527 35.7251 3.82666 35.7324 3.28467 35.7471C2.74268 35.7617 2.27393 35.7837 1.87842 35.813C1.39502 35.8423 0.962891 35.8716 0.582031 35.9009C0.787109 33.7036 0.948242 31.5649 1.06543 29.4849C1.18262 27.4048 1.27051 25.5444 1.3291 23.9038C1.3877 21.9995 1.42432 20.1904 1.43896 18.4766C1.43896 16.8066 1.40967 15.1001 1.35107 13.3569C1.32178 12.6099 1.28516 11.8262 1.24121 11.0059C1.21191 10.1709 1.16797 9.32861 1.10938 8.479C1.06543 7.61475 0.999512 6.75049 0.911621 5.88623C0.838379 5.02197 0.757812 4.17969 0.669922 3.35938C1.28516 3.40332 1.85645 3.43262 2.38379 3.44727C2.91113 3.44727 3.40186 3.44727 3.85596 3.44727C4.32471 3.44727 4.74951 3.44727 5.13037 3.44727C5.51123 3.43262 5.8335 3.41797 6.09717 3.40332C6.40479 3.38867 6.67578 3.37402 6.91016 3.35938C6.77832 5.19043 6.67578 6.98486 6.60254 8.74268C6.5293 10.5005 6.47803 12.0825 6.44873 13.4888C6.40479 15.1294 6.38281 16.6895 6.38281 18.1689V19.5093C7.29102 18.396 8.11865 17.1948 8.86572 15.9058C9.62744 14.6167 10.2793 13.2837 10.8213 11.9067C11.3633 10.5151 11.7808 9.10889 12.0737 7.68799C12.3813 6.26709 12.5352 4.86816 12.5352 3.49121V2.78809L20.0059 3.44727C18.7168 5.71777 17.5962 7.72461 16.644 9.46777C15.6919 11.1963 14.8716 12.6904 14.1831 13.9502C13.5093 15.21 12.96 16.2573 12.5352 17.0923C12.1104 17.9272 11.7808 18.5864 11.5464 19.0698C12.5864 19.3481 13.4214 19.7363 14.0513 20.2344C14.6958 20.7178 15.2012 21.2817 15.5674 21.9263C15.9336 22.5708 16.1899 23.2812 16.3364 24.0576C16.4976 24.8193 16.6221 25.6104 16.71 26.4307C16.7979 27.251 16.8784 28.0786 16.9517 28.9136C17.0396 29.7485 17.1934 30.5615 17.4131 31.3525C17.5303 31.8066 17.6987 32.2754 17.9185 32.7588C18.1089 33.1836 18.3579 33.6597 18.6655 34.187C18.9731 34.6997 19.3613 35.2271 19.8301 35.769L13.6338 35.9009C13.2969 35.564 13.0186 35.1172 12.7988 34.5605C12.5938 34.0039 12.4326 33.4546 12.3154 32.9126C12.1689 32.2827 12.0664 31.6162 12.0078 30.9131C11.9346 30.1074 11.8833 29.3237 11.854 28.562C11.8394 27.7856 11.7954 27.0532 11.7222 26.3647C11.6636 25.6763 11.561 25.0464 11.4146 24.4751C11.2681 23.8892 11.0337 23.3911 10.7114 22.981C10.3892 22.5562 9.95703 22.2266 9.41504 21.9922C8.8877 21.7578 8.20654 21.6406 7.37158 21.6406C7.21045 21.6406 7.04932 21.6479 6.88818 21.6626C6.72705 21.6772 6.55859 21.6992 6.38281 21.7285C6.42676 23.3105 6.48535 25.3101 6.55859 27.7271C6.64648 30.1294 6.77832 32.8101 6.9541 35.769ZM27.6084 4.17236C27.6084 4.64111 27.5205 5.08789 27.3447 5.5127C27.1689 5.92285 26.9272 6.28174 26.6196 6.58936C26.312 6.89697 25.9458 7.146 25.521 7.33643C25.1108 7.51221 24.6714 7.6001 24.2026 7.6001C23.7339 7.6001 23.2871 7.51221 22.8623 7.33643C22.4521 7.146 22.0933 6.89697 21.7856 6.58936C21.478 6.28174 21.229 5.92285 21.0386 5.5127C20.8628 5.08789 20.7749 4.64111 20.7749 4.17236C20.7749 3.70361 20.8628 3.26416 21.0386 2.854C21.229 2.4292 21.478 2.06299 21.7856 1.75537C22.0933 1.44775 22.4521 1.20605 22.8623 1.03027C23.2871 0.839844 23.7339 0.744629 24.2026 0.744629C24.6714 0.744629 25.1108 0.839844 25.521 1.03027C25.9458 1.20605 26.312 1.44775 26.6196 1.75537C26.9272 2.06299 27.1689 2.4292 27.3447 2.854C27.5205 3.26416 27.6084 3.70361 27.6084 4.17236ZM27.6084 10.8301C27.4912 11.9873 27.3887 13.2397 27.3008 14.5874C27.2275 15.9204 27.1616 17.29 27.103 18.6963C27.0591 20.1025 27.0225 21.5161 26.9932 22.937C26.9639 24.3579 26.9419 25.7129 26.9272 27.002C26.9126 28.291 26.8979 29.4995 26.8833 30.6274C26.8833 31.7407 26.8833 32.7002 26.8833 33.5059V35.9888L21.8955 36.1646C21.9248 35.1538 21.9395 34.1724 21.9395 33.2202C21.9395 32.2681 21.9395 31.3159 21.9395 30.3638C21.9395 28.7085 21.9248 27.0972 21.8955 25.5298C21.8662 23.9478 21.8149 22.3657 21.7417 20.7837C21.6831 19.2017 21.6025 17.5977 21.5 15.9717C21.3975 14.3457 21.2729 12.6611 21.1265 10.918L27.6084 10.8301ZM36.0459 35.9009L30.1792 36.3403C30.4136 33.7183 30.582 31.1914 30.6846 28.7598C30.8018 26.3135 30.8604 23.8672 30.8604 21.4209C30.8604 19.6924 30.8311 17.9639 30.7725 16.2354C30.7285 14.4922 30.6406 12.7051 30.5088 10.874L35.4526 10.6104C35.4233 10.9326 35.4014 11.2476 35.3867 11.5552C35.3721 11.8628 35.3647 12.1631 35.3647 12.4561C35.8774 11.665 36.4341 11.0498 37.0347 10.6104C37.6499 10.1562 38.2212 9.82666 38.7485 9.62158C39.3491 9.37256 39.957 9.21875 40.5723 9.16016C41.6416 9.16016 42.5571 9.32861 43.3188 9.66553C44.0806 9.98779 44.7031 10.4126 45.1865 10.9399C45.6699 11.4526 46.0215 12.0312 46.2412 12.6758C46.4609 13.3057 46.5708 13.9209 46.5708 14.5215C46.5708 15.1367 46.5049 15.7593 46.373 16.3892C46.2412 17.019 46.0142 17.5903 45.6919 18.103C45.3843 18.6011 44.9668 19.0112 44.4395 19.3335C43.9268 19.6411 43.2896 19.7949 42.5278 19.7949C41.7661 19.7949 41.1655 19.6558 40.7261 19.3774C40.2866 19.0991 39.9497 18.7695 39.7153 18.3887C39.4956 17.9932 39.3491 17.5903 39.2759 17.1802C39.2173 16.7554 39.188 16.3965 39.188 16.1035C39.188 15.8984 39.2246 15.6714 39.2979 15.4224C39.3711 15.1587 39.481 14.895 39.6274 14.6313C39.7739 14.3677 39.957 14.1113 40.1768 13.8623C40.3965 13.5986 40.6528 13.3569 40.9458 13.1372C40.8579 13.1079 40.7627 13.0859 40.6602 13.0713C40.5723 13.0566 40.4844 13.0493 40.3965 13.0493C39.6641 13.0493 39.0122 13.2837 38.4409 13.7524C37.8696 14.2065 37.3716 14.8438 36.9468 15.6641C36.5366 16.4844 36.1924 17.4512 35.9141 18.5645C35.6504 19.6777 35.4526 20.8936 35.3208 22.2119C35.394 24.4824 35.4966 26.731 35.6284 28.9575C35.7603 31.1841 35.8994 33.4985 36.0459 35.9009ZM54.459 4.17236C54.459 4.64111 54.3711 5.08789 54.1953 5.5127C54.0195 5.92285 53.7778 6.28174 53.4702 6.58936C53.1626 6.89697 52.7964 7.146 52.3716 7.33643C51.9614 7.51221 51.522 7.6001 51.0532 7.6001C50.5845 7.6001 50.1377 7.51221 49.7129 7.33643C49.3027 7.146 48.9438 6.89697 48.6362 6.58936C48.3286 6.28174 48.0796 5.92285 47.8892 5.5127C47.7134 5.08789 47.6255 4.64111 47.6255 4.17236C47.6255 3.70361 47.7134 3.26416 47.8892 2.854C48.0796 2.4292 48.3286 2.06299 48.6362 1.75537C48.9438 1.44775 49.3027 1.20605 49.7129 1.03027C50.1377 0.839844 50.5845 0.744629 51.0532 0.744629C51.522 0.744629 51.9614 0.839844 52.3716 1.03027C52.7964 1.20605 53.1626 1.44775 53.4702 1.75537C53.7778 2.06299 54.0195 2.4292 54.1953 2.854C54.3711 3.26416 54.459 3.70361 54.459 4.17236ZM54.459 10.8301C54.3418 11.9873 54.2393 13.2397 54.1514 14.5874C54.0781 15.9204 54.0122 17.29 53.9536 18.6963C53.9097 20.1025 53.873 21.5161 53.8438 22.937C53.8145 24.3579 53.7925 25.7129 53.7778 27.002C53.7632 28.291 53.7485 29.4995 53.7339 30.6274C53.7339 31.7407 53.7339 32.7002 53.7339 33.5059V35.9888L48.7461 36.1646C48.7754 35.1538 48.79 34.1724 48.79 33.2202C48.79 32.2681 48.79 31.3159 48.79 30.3638C48.79 28.7085 48.7754 27.0972 48.7461 25.5298C48.7168 23.9478 48.6655 22.3657 48.5923 20.7837C48.5337 19.2017 48.4531 17.5977 48.3506 15.9717C48.248 14.3457 48.1235 12.6611 47.9771 10.918L54.459 10.8301ZM62.9844 1.20605C62.8965 2.99316 62.8159 4.64844 62.7427 6.17188C62.6694 7.69531 62.6035 9.13086 62.5449 10.4785C62.501 11.8262 62.4644 13.1079 62.4351 14.3237C62.4058 15.5396 62.3765 16.7407 62.3472 17.9272C62.3325 19.1138 62.3179 20.3076 62.3032 21.5088C62.3032 22.71 62.3032 23.9697 62.3032 25.2881C62.3032 26.7529 62.3032 28.3203 62.3032 29.9902C62.3032 31.6602 62.3179 33.5132 62.3472 35.5493L57.3594 35.4395C57.4473 33.2275 57.5059 31.0522 57.5352 28.9136C57.5645 26.7603 57.5791 24.5557 57.5791 22.2998C57.5791 20.791 57.5718 19.2456 57.5571 17.6636C57.5425 16.0669 57.5205 14.4043 57.4912 12.6758C57.4619 10.9326 57.4253 9.10156 57.3813 7.18262C57.3521 5.26367 57.3154 3.22754 57.2715 1.07422L62.9844 1.20605ZM71.4219 1.20605C71.334 2.99316 71.2534 4.64844 71.1802 6.17188C71.1069 7.69531 71.041 9.13086 70.9824 10.4785C70.9385 11.8262 70.9019 13.1079 70.8726 14.3237C70.8433 15.5396 70.814 16.7407 70.7847 17.9272C70.77 19.1138 70.7554 20.3076 70.7407 21.5088C70.7407 22.71 70.7407 23.9697 70.7407 25.2881C70.7407 26.7529 70.7407 28.3203 70.7407 29.9902C70.7407 31.6602 70.7554 33.5132 70.7847 35.5493L65.7969 35.4395C65.8848 33.2275 65.9434 31.0522 65.9727 28.9136C66.002 26.7603 66.0166 24.5557 66.0166 22.2998C66.0166 20.791 66.0093 19.2456 65.9946 17.6636C65.98 16.0669 65.958 14.4043 65.9287 12.6758C65.8994 10.9326 65.8628 9.10156 65.8188 7.18262C65.7896 5.26367 65.7529 3.22754 65.709 1.07422L71.4219 1.20605ZM92.999 19.9268C92.999 22.3145 92.772 24.3799 92.3179 26.123C91.8784 27.8516 91.3071 29.3311 90.604 30.5615C89.9009 31.7773 89.1099 32.7661 88.231 33.5278C87.3521 34.2896 86.4731 34.8755 85.5942 35.2856C84.7153 35.7104 83.8877 35.9961 83.1113 36.1426C82.335 36.3037 81.6978 36.3843 81.1997 36.3843C81.0825 36.3843 80.8188 36.377 80.4087 36.3623C80.0132 36.3477 79.5225 36.311 78.9365 36.2524C78.3506 36.2085 77.6841 36.1353 76.937 36.0327C76.2046 35.9302 75.4355 35.7837 74.6299 35.5933C74.6445 32.6929 74.6592 30.1807 74.6738 28.0566C74.7031 25.918 74.7251 24.0796 74.7397 22.5415C74.7544 21.0034 74.769 19.7144 74.7837 18.6743C74.7983 17.6343 74.8057 16.7407 74.8057 15.9937C74.8203 15.2466 74.8276 14.6094 74.8276 14.082C74.8423 13.54 74.8496 13.0127 74.8496 12.5C74.8496 11.6943 74.8423 10.8667 74.8276 10.0171C74.813 9.15283 74.7837 8.31787 74.7397 7.51221C74.6958 6.70654 74.6372 5.95215 74.564 5.24902C74.4907 4.5459 74.3955 3.94531 74.2783 3.44727C75.4209 3.37402 76.4609 3.33008 77.3984 3.31543C78.3506 3.28613 79.1709 3.27148 79.8594 3.27148C81.5879 3.27148 83.1113 3.48389 84.4297 3.90869C85.748 4.31885 86.8906 4.89746 87.8574 5.64453C88.8389 6.37695 89.6519 7.26318 90.2964 8.30322C90.9556 9.32861 91.4829 10.4565 91.8784 11.687C92.2886 12.9175 92.5742 14.2358 92.7354 15.6421C92.9111 17.0337 92.999 18.4619 92.999 19.9268ZM87.2861 19.2456C87.2861 16.6528 87.1616 14.5435 86.9126 12.9175C86.6782 11.2769 86.29 10.0024 85.748 9.09424C85.2207 8.18604 84.5249 7.5708 83.6606 7.24854C82.811 6.91162 81.7783 6.74316 80.5625 6.74316H79.9033L80.167 32.561C80.46 32.6782 80.731 32.7588 80.98 32.8027C81.2437 32.832 81.5 32.8467 81.749 32.8467C82.7305 32.8467 83.5654 32.6196 84.2539 32.1655C84.957 31.6968 85.5283 30.9351 85.9678 29.8804C86.4219 28.811 86.7515 27.4121 86.9565 25.6836C87.1763 23.9404 87.2861 21.7944 87.2861 19.2456ZM111.324 30.2759C111.324 31.1401 111.126 31.9531 110.731 32.7148C110.335 33.4766 109.801 34.1357 109.127 34.6924C108.453 35.249 107.662 35.6885 106.754 36.0107C105.846 36.333 104.879 36.4941 103.854 36.4941C103.165 36.4941 102.469 36.3989 101.766 36.2085C101.063 36.0181 100.389 35.7031 99.7446 35.2637C99.1001 34.8242 98.4922 34.2456 97.9209 33.5278C97.3496 32.8101 96.8516 31.9312 96.4268 30.8911C96.0166 29.8511 95.687 28.6353 95.438 27.2437C95.2036 25.8374 95.0864 24.2261 95.0864 22.4097C95.0864 20.6958 95.2036 19.1797 95.438 17.8613C95.687 16.543 96.0166 15.3931 96.4268 14.4116C96.8516 13.4302 97.3423 12.6099 97.8989 11.9507C98.4556 11.2769 99.0488 10.7349 99.6787 10.3247C100.323 9.8999 100.982 9.59961 101.656 9.42383C102.345 9.24805 103.019 9.16016 103.678 9.16016C104.659 9.16016 105.589 9.32129 106.468 9.64355C107.347 9.95117 108.116 10.4126 108.775 11.0278C109.435 11.6431 109.955 12.4048 110.335 13.313C110.731 14.2065 110.929 15.2393 110.929 16.4111C110.929 17.4658 110.709 18.5352 110.27 19.6191C109.845 20.6885 109.208 21.7065 108.358 22.6733C107.508 23.6255 106.454 24.4971 105.194 25.2881C103.949 26.0645 102.513 26.6797 100.887 27.1338C100.975 28.042 101.1 28.8696 101.261 29.6167C101.437 30.3638 101.649 31.001 101.898 31.5283C102.162 32.0557 102.462 32.4658 102.799 32.7588C103.15 33.0518 103.553 33.1982 104.007 33.1982C104.3 33.1836 104.579 33.1323 104.842 33.0444C105.077 32.9712 105.311 32.854 105.545 32.6929C105.794 32.5317 106 32.2974 106.161 31.9897C105.78 31.814 105.487 31.5869 105.282 31.3086C105.077 31.0303 104.923 30.7666 104.82 30.5176C104.703 30.2246 104.637 29.917 104.623 29.5947C104.623 28.8916 104.762 28.3203 105.04 27.8809C105.318 27.4414 105.648 27.0972 106.029 26.8481C106.41 26.5991 106.798 26.4307 107.193 26.3428C107.589 26.2402 107.904 26.189 108.138 26.189C108.387 26.189 108.688 26.2402 109.039 26.3428C109.405 26.4453 109.757 26.6431 110.094 26.936C110.431 27.229 110.716 27.6465 110.951 28.1885C111.2 28.7158 111.324 29.4116 111.324 30.2759ZM105.897 16.4551C105.897 15.9277 105.846 15.4297 105.743 14.9609C105.655 14.4775 105.516 14.0601 105.326 13.7085C105.15 13.3569 104.923 13.0786 104.645 12.8735C104.381 12.6538 104.073 12.5439 103.722 12.5439C103.121 12.5439 102.63 12.8223 102.25 13.3789C101.869 13.9209 101.561 14.646 101.327 15.5542C101.092 16.4624 100.931 17.5098 100.843 18.6963C100.755 19.8828 100.711 21.1206 100.711 22.4097V24.0137C101.458 23.6182 102.147 23.1494 102.777 22.6074C103.421 22.0654 103.971 21.4722 104.425 20.8276C104.894 20.1685 105.252 19.4727 105.501 18.7402C105.765 18.0078 105.897 17.2461 105.897 16.4551ZM130.748 10.6104C130.045 12.793 129.386 14.9097 128.771 16.9604C128.155 19.0112 127.577 21.062 127.035 23.1128C126.493 25.1489 125.98 27.207 125.497 29.2871C125.013 31.3672 124.559 33.5278 124.134 35.769L117.784 35.9009C117.389 33.7183 116.986 31.6089 116.576 29.5728C116.18 27.522 115.755 25.4858 115.301 23.4644C114.862 21.4429 114.393 19.4067 113.895 17.356C113.397 15.3052 112.862 13.1885 112.291 11.0059L118.597 10.7422C118.934 13.877 119.308 17.0776 119.718 20.3442C120.128 23.6108 120.611 26.8188 121.168 29.9683C121.886 26.7896 122.464 23.5522 122.904 20.2563C123.358 16.9458 123.709 13.7012 123.958 10.5225L130.748 10.6104Z" fill="white"/>
</svg>
